<?xml version="1.0" encoding="UTF-8"?>
<!--Generator: Apple Native CoreSVG 175.5-->
<!DOCTYPE svg
PUBLIC "-//W3C//DTD SVG 1.1//EN"
       "http://www.w3.org/Graphics/SVG/1.1/DTD/svg11.dtd">
<svg version="1.1" xmlns="http://www.w3.org/2000/svg" xmlns:xlink="http://www.w3.org/1999/xlink" width="3300" height="2200">
 <!--glyph: "uni1009A7.medium", point size: 100.0, font version: "18.0d12e2", template writer version: "101"-->
 <style>.monochrome-0 {fill:#000000}

.SFSymbolsPreview000000 {fill:#000000;opacity:1.0}
</style>
 <g id="Notes">
  <rect height="2200" id="artboard" style="fill:white;opacity:1" width="3300" x="0" y="0"/>
  <line style="fill:none;stroke:black;opacity:1;stroke-width:0.5;" x1="263" x2="3036" y1="292" y2="292"/>
  <text style="stroke:none;fill:black;font-family:sans-serif;font-size:13;font-weight:bold;" transform="matrix(1 0 0 1 263 322)">Weight/Scale Variations</text>
  <text style="stroke:none;fill:black;font-family:sans-serif;font-size:13;text-anchor:middle;" transform="matrix(1 0 0 1 559.711 322)">Ultralight</text>
  <text style="stroke:none;fill:black;font-family:sans-serif;font-size:13;text-anchor:middle;" transform="matrix(1 0 0 1 856.422 322)">Thin</text>
  <text style="stroke:none;fill:black;font-family:sans-serif;font-size:13;text-anchor:middle;" transform="matrix(1 0 0 1 1153.13 322)">Light</text>
  <text style="stroke:none;fill:black;font-family:sans-serif;font-size:13;text-anchor:middle;" transform="matrix(1 0 0 1 1449.84 322)">Regular</text>
  <text style="stroke:none;fill:black;font-family:sans-serif;font-size:13;text-anchor:middle;" transform="matrix(1 0 0 1 1746.56 322)">Medium</text>
  <text style="stroke:none;fill:black;font-family:sans-serif;font-size:13;text-anchor:middle;" transform="matrix(1 0 0 1 2043.27 322)">Semibold</text>
  <text style="stroke:none;fill:black;font-family:sans-serif;font-size:13;text-anchor:middle;" transform="matrix(1 0 0 1 2339.98 322)">Bold</text>
  <text style="stroke:none;fill:black;font-family:sans-serif;font-size:13;text-anchor:middle;" transform="matrix(1 0 0 1 2636.69 322)">Heavy</text>
  <text style="stroke:none;fill:black;font-family:sans-serif;font-size:13;text-anchor:middle;" transform="matrix(1 0 0 1 2933.4 322)">Black</text>
  <line style="fill:none;stroke:black;opacity:1;stroke-width:0.5;" x1="263" x2="3036" y1="1903" y2="1903"/>
  <g transform="matrix(1 0 0 1 263 1933)">
   <path d="M9.24805 0.830078C13.5547 0.830078 17.1387-2.74414 17.1387-7.05078C17.1387-11.3574 13.5449-14.9316 9.23828-14.9316C4.94141-14.9316 1.36719-11.3574 1.36719-7.05078C1.36719-2.74414 4.95117 0.830078 9.24805 0.830078ZM9.24805-0.654297C5.70312-0.654297 2.87109-3.49609 2.87109-7.05078C2.87109-10.6055 5.69336-13.4473 9.23828-13.4473C12.793-13.4473 15.6445-10.6055 15.6445-7.05078C15.6445-3.49609 12.8027-0.654297 9.24805-0.654297ZM5.6543-7.05078C5.6543-6.62109 5.95703-6.32812 6.40625-6.32812L8.50586-6.32812L8.50586-4.20898C8.50586-3.76953 8.79883-3.4668 9.22852-3.4668C9.67773-3.4668 9.9707-3.76953 9.9707-4.20898L9.9707-6.32812L12.0898-6.32812C12.5293-6.32812 12.832-6.62109 12.832-7.05078C12.832-7.49023 12.5293-7.79297 12.0898-7.79297L9.9707-7.79297L9.9707-9.90234C9.9707-10.3516 9.67773-10.6543 9.22852-10.6543C8.79883-10.6543 8.50586-10.3516 8.50586-9.90234L8.50586-7.79297L6.40625-7.79297C5.95703-7.79297 5.6543-7.49023 5.6543-7.05078Z"/>
  </g>
  <g transform="matrix(1 0 0 1 281.867 1933)">
   <path d="M11.709 2.91016C17.1582 2.91016 21.6699-1.61133 21.6699-7.05078C21.6699-12.5 17.1484-17.0117 11.6992-17.0117C6.25977-17.0117 1.74805-12.5 1.74805-7.05078C1.74805-1.61133 6.26953 2.91016 11.709 2.91016ZM11.709 1.25C7.09961 1.25 3.41797-2.44141 3.41797-7.05078C3.41797-11.6602 7.08984-15.3516 11.6992-15.3516C16.3086-15.3516 20.0098-11.6602 20.0098-7.05078C20.0098-2.44141 16.3184 1.25 11.709 1.25ZM7.17773-7.05078C7.17773-6.57227 7.50977-6.25 8.00781-6.25L10.8789-6.25L10.8789-3.36914C10.8789-2.88086 11.2109-2.53906 11.6895-2.53906C12.1777-2.53906 12.5195-2.87109 12.5195-3.36914L12.5195-6.25L15.4004-6.25C15.8887-6.25 16.2305-6.57227 16.2305-7.05078C16.2305-7.53906 15.8887-7.88086 15.4004-7.88086L12.5195-7.88086L12.5195-10.752C12.5195-11.25 12.1777-11.5918 11.6895-11.5918C11.2109-11.5918 10.8789-11.25 10.8789-10.752L10.8789-7.88086L8.00781-7.88086C7.50977-7.88086 7.17773-7.53906 7.17773-7.05078Z"/>
  </g>
  <g transform="matrix(1 0 0 1 305.646 1933)">
   <path d="M14.9707 5.66406C21.9336 5.66406 27.6953-0.0976562 27.6953-7.05078C27.6953-14.0137 21.9238-19.7754 14.9609-19.7754C8.00781-19.7754 2.25586-14.0137 2.25586-7.05078C2.25586-0.0976562 8.01758 5.66406 14.9707 5.66406ZM14.9707 3.84766C8.93555 3.84766 4.08203-1.01562 4.08203-7.05078C4.08203-13.0957 8.92578-17.9492 14.9609-17.9492C21.0059-17.9492 25.8691-13.0957 25.8691-7.05078C25.8691-1.01562 21.0156 3.84766 14.9707 3.84766ZM9.19922-7.05078C9.19922-6.5332 9.57031-6.17188 10.1172-6.17188L14.0625-6.17188L14.0625-2.2168C14.0625-1.67969 14.4336-1.29883 14.9512-1.29883C15.4883-1.29883 15.8594-1.66992 15.8594-2.2168L15.8594-6.17188L19.8145-6.17188C20.3516-6.17188 20.7324-6.5332 20.7324-7.05078C20.7324-7.59766 20.3613-7.96875 19.8145-7.96875L15.8594-7.96875L15.8594-11.9141C15.8594-12.4609 15.4883-12.8418 14.9512-12.8418C14.4336-12.8418 14.0625-12.4609 14.0625-11.9141L14.0625-7.96875L10.1172-7.96875C9.57031-7.96875 9.19922-7.59766 9.19922-7.05078Z"/>
  </g>
  <text style="stroke:none;fill:black;font-family:sans-serif;font-size:13;font-weight:bold;" transform="matrix(1 0 0 1 263 1953)">Design Variations</text>
  <text style="stroke:none;fill:black;font-family:sans-serif;font-size:13;" transform="matrix(1 0 0 1 263 1971)">Symbols are supported in up to nine weights and three scales.</text>
  <text style="stroke:none;fill:black;font-family:sans-serif;font-size:13;" transform="matrix(1 0 0 1 263 1989)">For optimal layout with text and other symbols, vertically align</text>
  <text style="stroke:none;fill:black;font-family:sans-serif;font-size:13;" transform="matrix(1 0 0 1 263 2007)">symbols with the adjacent text.</text>
  <line style="fill:none;stroke:#00AEEF;stroke-width:0.5;opacity:1.0;" x1="776" x2="776" y1="1919" y2="1933"/>
  <g transform="matrix(1 0 0 1 776 1933)">
   <path d="M3.31055 0.15625C3.82812 0.15625 4.08203-0.0390625 4.26758-0.585938L5.52734-4.0332L11.2891-4.0332L12.5488-0.585938C12.7344-0.0390625 12.9883 0.15625 13.4961 0.15625C14.0137 0.15625 14.3457-0.15625 14.3457-0.644531C14.3457-0.810547 14.3164-0.966797 14.2383-1.17188L9.6582-13.3691C9.43359-13.9648 9.0332-14.2676 8.4082-14.2676C7.80273-14.2676 7.39258-13.9746 7.17773-13.3789L2.59766-1.16211C2.51953-0.957031 2.49023-0.800781 2.49023-0.634766C2.49023-0.146484 2.80273 0.15625 3.31055 0.15625ZM6.00586-5.51758L8.37891-12.0898L8.42773-12.0898L10.8008-5.51758Z"/>
  </g>
  <line style="fill:none;stroke:#00AEEF;stroke-width:0.5;opacity:1.0;" x1="793.197" x2="793.197" y1="1919" y2="1933"/>
  <text style="stroke:none;fill:black;font-family:sans-serif;font-size:13;font-weight:bold;" transform="matrix(1 0 0 1 776 1953)">Margins</text>
  <text style="stroke:none;fill:black;font-family:sans-serif;font-size:13;" transform="matrix(1 0 0 1 776 1971)">Leading and trailing margins on the left and right side of each symbol</text>
  <text style="stroke:none;fill:black;font-family:sans-serif;font-size:13;" transform="matrix(1 0 0 1 776 1989)">can be adjusted by modifying the x-location of the margin guidelines.</text>
  <text style="stroke:none;fill:black;font-family:sans-serif;font-size:13;" transform="matrix(1 0 0 1 776 2007)">Modifications are automatically applied proportionally to all</text>
  <text style="stroke:none;fill:black;font-family:sans-serif;font-size:13;" transform="matrix(1 0 0 1 776 2025)">scales and weights.</text>
  <g transform="matrix(1 0 0 1 1289 1933)">
   <path d="M2.8418 1.86523L4.54102 3.57422C5.40039 4.44336 6.38672 4.38477 7.31445 3.35938L18.0078-8.42773L17.041-9.4043L6.42578 2.27539C6.07422 2.67578 5.74219 2.77344 5.27344 2.30469L4.10156 1.14258C3.63281 0.683594 3.74023 0.341797 4.14062-0.0195312L15.6152-10.8203L14.6387-11.7871L3.04688-0.898438C2.06055 0.0195312 1.98242 0.996094 2.8418 1.86523ZM9.25781-16.3281C8.83789-15.918 8.80859-15.3418 9.04297-14.9512C9.27734-14.5898 9.73633-14.3555 10.3809-14.5215C11.8457-14.8633 13.3691-14.9219 14.7949-13.9844L14.209-12.5293C13.8672-11.6992 14.043-11.1133 14.5801-10.5664L16.875-8.25195C17.3633-7.76367 17.7734-7.74414 18.3398-7.8418L19.4043-8.03711L20.0684-7.36328L20.0293-6.80664C19.9902-6.30859 20.1172-5.92773 20.6055-5.44922L21.3672-4.70703C21.8457-4.22852 22.4609-4.19922 22.9297-4.66797L25.8398-7.58789C26.3086-8.05664 26.2891-8.65234 25.8105-9.13086L25.0391-9.89258C24.5605-10.3711 24.1895-10.5273 23.7109-10.4883L23.1348-10.4395L22.4902-11.0742L22.7344-12.1973C22.8613-12.7637 22.7051-13.2031 22.1191-13.7891L19.9219-15.9766C16.582-19.2969 12.1484-19.2188 9.25781-16.3281ZM10.752-15.957C13.1836-17.7344 16.4746-17.4316 18.7012-15.2051L21.1328-12.793C21.3672-12.5586 21.4062-12.373 21.3379-12.0312L21.0156-10.5469L22.5195-9.0625L23.5059-9.12109C23.7598-9.13086 23.8379-9.11133 24.0332-8.91602L24.6094-8.33984L22.168-5.89844L21.5918-6.47461C21.3965-6.66992 21.3672-6.74805 21.377-7.01172L21.4453-7.98828L19.9512-9.47266L18.4277-9.21875C18.1055-9.15039 17.959-9.17969 17.7148-9.41406L15.7129-11.416C15.459-11.6504 15.4297-11.8164 15.5859-12.1875L16.4648-14.2773C14.9023-15.7324 12.8711-16.3574 10.8398-15.7617C10.6836-15.7227 10.625-15.8496 10.752-15.957Z"/>
  </g>
  <text style="stroke:none;fill:black;font-family:sans-serif;font-size:13;font-weight:bold;" transform="matrix(1 0 0 1 1289 1953)">Exporting</text>
  <text style="stroke:none;fill:black;font-family:sans-serif;font-size:13;" transform="matrix(1 0 0 1 1289 1971)">Symbols should be outlined when exporting to ensure the</text>
  <text style="stroke:none;fill:black;font-family:sans-serif;font-size:13;" transform="matrix(1 0 0 1 1289 1989)">design is preserved when submitting to Xcode.</text>
  <text id="template-version" style="stroke:none;fill:black;font-family:sans-serif;font-size:13;text-anchor:end;" transform="matrix(1 0 0 1 3036 1933)">Template v.4.0</text>
  <text style="stroke:none;fill:black;font-family:sans-serif;font-size:13;text-anchor:end;" transform="matrix(1 0 0 1 3036 1951)">Requires Xcode 14 or greater</text>
  <text id="descriptive-name" style="stroke:none;fill:black;font-family:sans-serif;font-size:13;text-anchor:end;" transform="matrix(1 0 0 1 3036 1969)">Generated from eyes</text>
  <text style="stroke:none;fill:black;font-family:sans-serif;font-size:13;text-anchor:end;" transform="matrix(1 0 0 1 3036 1987)">Typeset at 100 points</text>
  <text style="stroke:none;fill:black;font-family:sans-serif;font-size:13;" transform="matrix(1 0 0 1 263 726)">Small</text>
  <text style="stroke:none;fill:black;font-family:sans-serif;font-size:13;" transform="matrix(1 0 0 1 263 1156)">Medium</text>
  <text style="stroke:none;fill:black;font-family:sans-serif;font-size:13;" transform="matrix(1 0 0 1 263 1586)">Large</text>
 </g>
 <g id="Guides">
  <g id="H-reference" style="fill:#27AAE1;stroke:none;" transform="matrix(1 0 0 1 339 696)">
   <path d="M0.993654 0L3.63775 0L29.3281-67.1323L30.0303-67.1323L30.0303-70.459L28.1226-70.459ZM11.6885-24.4799L46.9815-24.4799L46.2315-26.7285L12.4385-26.7285ZM55.1196 0L57.7637 0L30.6382-70.459L29.4326-70.459L29.4326-67.1323Z"/>
  </g>
  <line id="Baseline-S" style="fill:none;stroke:#27AAE1;opacity:1;stroke-width:0.5;" x1="263" x2="3036" y1="696" y2="696"/>
  <line id="Capline-S" style="fill:none;stroke:#27AAE1;opacity:1;stroke-width:0.5;" x1="263" x2="3036" y1="625.541" y2="625.541"/>
  <g id="H-reference" style="fill:#27AAE1;stroke:none;" transform="matrix(1 0 0 1 339 1126)">
   <path d="M0.993654 0L3.63775 0L29.3281-67.1323L30.0303-67.1323L30.0303-70.459L28.1226-70.459ZM11.6885-24.4799L46.9815-24.4799L46.2315-26.7285L12.4385-26.7285ZM55.1196 0L57.7637 0L30.6382-70.459L29.4326-70.459L29.4326-67.1323Z"/>
  </g>
  <line id="Baseline-M" style="fill:none;stroke:#27AAE1;opacity:1;stroke-width:0.5;" x1="263" x2="3036" y1="1126" y2="1126"/>
  <line id="Capline-M" style="fill:none;stroke:#27AAE1;opacity:1;stroke-width:0.5;" x1="263" x2="3036" y1="1055.54" y2="1055.54"/>
  <g id="H-reference" style="fill:#27AAE1;stroke:none;" transform="matrix(1 0 0 1 339 1556)">
   <path d="M0.993654 0L3.63775 0L29.3281-67.1323L30.0303-67.1323L30.0303-70.459L28.1226-70.459ZM11.6885-24.4799L46.9815-24.4799L46.2315-26.7285L12.4385-26.7285ZM55.1196 0L57.7637 0L30.6382-70.459L29.4326-70.459L29.4326-67.1323Z"/>
  </g>
  <line id="Baseline-L" style="fill:none;stroke:#27AAE1;opacity:1;stroke-width:0.5;" x1="263" x2="3036" y1="1556" y2="1556"/>
  <line id="Capline-L" style="fill:none;stroke:#27AAE1;opacity:1;stroke-width:0.5;" x1="263" x2="3036" y1="1485.54" y2="1485.54"/>
  <line id="left-margin-Ultralight-S" style="fill:none;stroke:#00AEEF;stroke-width:0.5;opacity:1.0;" x1="511.659" x2="511.659" y1="600.785" y2="720.121"/>
  <line id="right-margin-Ultralight-S" style="fill:none;stroke:#00AEEF;stroke-width:0.5;opacity:1.0;" x1="607.764" x2="607.764" y1="600.785" y2="720.121"/>
  <line id="left-margin-Regular-S" style="fill:none;stroke:#00AEEF;stroke-width:0.5;opacity:1.0;" x1="1397.5" x2="1397.5" y1="600.785" y2="720.121"/>
  <line id="right-margin-Regular-S" style="fill:none;stroke:#00AEEF;stroke-width:0.5;opacity:1.0;" x1="1502.19" x2="1502.19" y1="600.785" y2="720.121"/>
  <line id="left-margin-Black-S" style="fill:none;stroke:#00AEEF;stroke-width:0.5;opacity:1.0;" x1="2874.22" x2="2874.22" y1="600.785" y2="720.121"/>
  <line id="right-margin-Black-S" style="fill:none;stroke:#00AEEF;stroke-width:0.5;opacity:1.0;" x1="2992.58" x2="2992.58" y1="600.785" y2="720.121"/>
 </g>
 <g id="Symbols">
  <g id="Black-S" transform="matrix(1 0 0 1 2874.22 696)">
   <path class="monochrome-0 SFSymbolsPreview000000" d="M31.7871 3.51562C46.7773 3.51562 56.7383-12.0117 56.7383-35.2539C56.7383-58.4961 46.7773-73.9746 31.7871-73.9746C16.7969-73.9746 6.83594-58.4961 6.83594-35.2539C6.83594-12.0117 16.7969 3.51562 31.7871 3.51562ZM86.5723 3.51562C101.562 3.51562 111.523-12.0117 111.523-35.2539C111.523-58.4961 101.562-73.9746 86.5723-73.9746C71.582-73.9746 61.6211-58.4961 61.6211-35.2539C61.6211-12.0117 71.582 3.51562 86.5723 3.51562ZM31.7871-9.66797C24.8047-9.61914 20.1172-19.8242 20.1172-35.2539C20.1172-50.5371 24.8047-60.7422 31.7871-60.791C38.8672-60.8398 43.5547-50.6348 43.5547-35.2539C43.5547-19.9707 38.8672-9.7168 31.7871-9.66797ZM86.5723-9.66797C79.5898-9.61914 74.9023-19.8242 74.9023-35.2539C74.9023-50.5371 79.5898-60.7422 86.5723-60.791C93.6523-60.8398 98.3398-50.6348 98.3398-35.2539C98.3398-19.9707 93.6523-9.7168 86.5723-9.66797ZM81.4453-23.4375C88.0371-23.4375 92.3828-27.9785 92.3828-34.8633C92.3828-41.6504 88.0371-46.2402 81.4453-46.2402C74.8535-46.2402 70.5078-41.6504 70.5078-34.8633C70.5078-27.9785 74.8535-23.4375 81.4453-23.4375ZM26.6602-23.4375C33.252-23.4375 37.5977-27.9785 37.5977-34.8633C37.5977-41.6504 33.252-46.2402 26.6602-46.2402C20.0684-46.2402 15.7227-41.6504 15.7227-34.8633C15.7227-27.9785 20.0684-23.4375 26.6602-23.4375ZM23.6328-36.3281C22.2656-36.5723 21.3867-38.1836 21.6797-39.8926C22.0215-41.6016 23.3887-42.7734 24.707-42.5781C26.123-42.334 26.9531-40.6738 26.6113-39.0137C26.2207-37.3047 25-36.084 23.6328-36.3281ZM78.418-36.3281C77.0508-36.5723 76.1719-38.1836 76.4648-39.8926C76.7578-41.6016 78.1738-42.7734 79.4922-42.5781C80.9082-42.3828 81.7383-40.6738 81.3965-39.0137C81.0547-37.3047 79.7852-36.084 78.418-36.3281Z"/>
  </g>
  <g id="Regular-S" transform="matrix(1 0 0 1 1397.5 696)">
   <path class="monochrome-0 SFSymbolsPreview000000" d="M28.2227 0C40.1367 0 49.6094-14.1602 49.6094-35.2539C49.6094-56.3477 40.1367-70.459 28.2227-70.459C16.3574-70.459 6.83594-56.3477 6.83594-35.2539C6.83594-14.1602 16.3574 0 28.2227 0ZM76.4648 0C88.3301 0 97.8516-14.1602 97.8516-35.2539C97.8516-56.3477 88.3301-70.459 76.4648-70.459C64.5508-70.459 55.0781-56.3477 55.0781-35.2539C55.0781-14.1602 64.5508 0 76.4648 0ZM28.2227-6.15234C20.1172-6.10352 13.0371-17.8223 13.0371-35.2539C13.0371-52.5879 20.1172-64.2578 28.2227-64.3066C36.4746-64.3555 43.5059-52.6855 43.5059-35.2539C43.5059-17.9199 36.4746-6.20117 28.2227-6.15234ZM76.4648-6.20117C68.2129-6.20117 61.1816-17.8711 61.1816-35.2539C61.1816-52.5879 68.2129-64.2578 76.4648-64.2578C84.5703-64.2578 91.6504-52.6367 91.6504-35.2539C91.6504-17.8711 84.5703-6.20117 76.4648-6.20117ZM68.3105-21.5332C74.8047-21.5332 79.1992-26.0742 79.1992-32.9102C79.1992-39.6484 74.8047-44.2383 68.3105-44.2383C61.7676-44.2383 57.373-39.6484 57.373-32.9102C57.373-26.0742 61.7676-21.5332 68.3105-21.5332ZM20.1172-21.5332C26.6602-21.5332 31.0059-26.0742 31.0059-32.9102C31.0059-39.6484 26.6602-44.2383 20.1172-44.2383C13.5742-44.2383 9.22852-39.6484 9.22852-32.9102C9.22852-26.0742 13.5742-21.5332 20.1172-21.5332ZM17.0898-34.3262C15.7227-34.5215 14.8438-36.1816 15.1367-37.8906C15.4785-39.5996 16.8457-40.8203 18.1641-40.5762C19.5801-40.2832 20.4102-38.6719 20.0684-37.0117C19.7754-35.3027 18.457-34.082 17.0898-34.3262ZM65.2832-34.3262C63.916-34.5703 63.0371-36.1816 63.3789-37.8906C63.7207-39.5996 64.9902-40.8203 66.3574-40.5762C67.7246-40.332 68.5547-38.6719 68.2129-37.0117C67.8711-35.3027 66.6504-34.082 65.2832-34.3262Z"/>
  </g>
  <g id="Ultralight-S" transform="matrix(1 0 0 1 511.659 696)">
   <path class="monochrome-0 SFSymbolsPreview000000" d="M25.8159-1.99803C36.4131-1.99803 44.7959-15.9765 44.7959-35.2539C44.7959-54.5313 36.4131-68.461 25.8159-68.461C15.1768-68.461 6.83594-54.5313 6.83594-35.2539C6.83594-15.9765 15.1768-1.99803 25.8159-1.99803ZM70.2891-1.99803C80.8829-1.99803 89.2691-15.9765 89.2691-35.2539C89.2691-54.5313 80.8829-68.461 70.2891-68.461C59.6919-68.461 51.3091-54.5313 51.3091-35.2539C51.3091-15.9765 59.6919-1.99803 70.2891-1.99803ZM25.8159-4.15431C16.3936-4.10548 9.08646-17.459 9.08646-35.2539C9.08646-52.9058 16.3482-66.2558 25.8159-66.3047C35.294-66.3535 42.6431-53.0488 42.6431-35.2539C42.6431-17.5112 35.294-4.20314 25.8159-4.15431ZM70.2891-4.15773C60.8565-4.11232 53.5528-17.4624 53.5528-35.2539C53.5528-52.9058 60.8111-66.2558 70.2891-66.3013C79.8023-66.3467 87.1094-53.0454 87.1094-35.2539C87.1094-17.5078 79.8023-4.20314 70.2891-4.15773ZM61.3174-22.7139C67.085-22.7139 70.98-26.7554 70.98-32.9102C70.98-39.0127 67.085-43.0576 61.3174-43.0576C55.501-43.0576 51.606-39.0127 51.606-32.9102C51.606-26.7554 55.501-22.7139 61.3174-22.7139ZM16.8023-22.7139C22.6187-22.7139 26.5103-26.7554 26.5103-32.9102C26.5103-39.0127 22.6187-43.0576 16.8023-43.0576C11.0313-43.0576 7.13966-39.0127 7.13966-32.9102C7.13966-26.7554 11.0313-22.7139 16.8023-22.7139ZM13.8203-33.7358C12.544-33.9312 11.7559-35.4097 12.0943-36.9824C12.4361-38.5098 13.5762-39.6397 14.8037-39.3955C16.0835-39.148 16.8228-37.7183 16.5264-36.1943C16.2334-34.6216 15.0513-33.5371 13.8203-33.7358ZM58.3355-33.7358C57.0591-33.9346 56.2256-35.4097 56.5674-36.9824C56.9092-38.5098 58.0879-39.6397 59.3189-39.3955C60.5953-39.1514 61.3345-37.7183 61.0381-36.1943C60.7418-34.6216 59.5665-33.5371 58.3355-33.7358Z"/>
  </g>
 </g>
</svg>
